<mxfile host="app.diagrams.net" modified="2023-10-02T12:58:02.225Z" agent="Mozilla/5.0 (Windows NT 10.0; Win64; x64) AppleWebKit/537.36 (KHTML, like Gecko) Chrome/117.0.0.0 Safari/537.36 Edg/117.0.2045.47" etag="8qcV2SrXSNJjzIO2cVeg" version="22.0.0" type="device">
  <diagram name="Pagina-1" id="aSx8keXMEgmIvnIaQf7b">
    <mxGraphModel dx="1670" dy="948" grid="1" gridSize="10" guides="1" tooltips="1" connect="1" arrows="1" fold="1" page="1" pageScale="1" pageWidth="1169" pageHeight="827" math="0" shadow="0">
      <root>
        <mxCell id="0" />
        <mxCell id="1" parent="0" />
        <mxCell id="XVVBf4NelrPcFKvBvD-p-1" value="" style="whiteSpace=wrap;html=1;aspect=fixed;" vertex="1" parent="1">
          <mxGeometry x="400" y="210" width="330" height="330" as="geometry" />
        </mxCell>
        <mxCell id="XVVBf4NelrPcFKvBvD-p-2" value="ESP-32" style="text;html=1;strokeColor=none;fillColor=none;align=center;verticalAlign=middle;whiteSpace=wrap;rounded=0;" vertex="1" parent="1">
          <mxGeometry x="500" y="350" width="130" height="50" as="geometry" />
        </mxCell>
        <mxCell id="XVVBf4NelrPcFKvBvD-p-3" value="" style="pointerEvents=1;verticalLabelPosition=bottom;shadow=0;dashed=0;align=center;html=1;verticalAlign=top;shape=mxgraph.electrical.electro-mechanical.manualSwitch2;elSwitchState=off;rotation=-90;" vertex="1" parent="1">
          <mxGeometry x="762" y="300" width="75" height="20" as="geometry" />
        </mxCell>
        <mxCell id="XVVBf4NelrPcFKvBvD-p-4" value="GPIO16" style="text;html=1;strokeColor=none;fillColor=none;align=center;verticalAlign=middle;whiteSpace=wrap;rounded=0;" vertex="1" parent="1">
          <mxGeometry x="670" y="380" width="60" height="30" as="geometry" />
        </mxCell>
        <mxCell id="XVVBf4NelrPcFKvBvD-p-5" value="GND" style="text;html=1;strokeColor=none;fillColor=none;align=center;verticalAlign=middle;whiteSpace=wrap;rounded=0;" vertex="1" parent="1">
          <mxGeometry x="670" y="220" width="60" height="30" as="geometry" />
        </mxCell>
        <mxCell id="XVVBf4NelrPcFKvBvD-p-11" value="" style="endArrow=none;html=1;rounded=0;" edge="1" parent="1">
          <mxGeometry width="50" height="50" relative="1" as="geometry">
            <mxPoint x="730" y="240" as="sourcePoint" />
            <mxPoint x="810" y="240" as="targetPoint" />
          </mxGeometry>
        </mxCell>
        <mxCell id="XVVBf4NelrPcFKvBvD-p-13" value="" style="endArrow=none;html=1;rounded=0;" edge="1" parent="1">
          <mxGeometry width="50" height="50" relative="1" as="geometry">
            <mxPoint x="809" y="280" as="sourcePoint" />
            <mxPoint x="809" y="240" as="targetPoint" />
          </mxGeometry>
        </mxCell>
        <mxCell id="XVVBf4NelrPcFKvBvD-p-14" value="" style="endArrow=none;html=1;rounded=0;" edge="1" parent="1">
          <mxGeometry width="50" height="50" relative="1" as="geometry">
            <mxPoint x="730" y="400" as="sourcePoint" />
            <mxPoint x="810" y="400" as="targetPoint" />
          </mxGeometry>
        </mxCell>
        <mxCell id="XVVBf4NelrPcFKvBvD-p-15" value="" style="endArrow=none;html=1;rounded=0;" edge="1" parent="1">
          <mxGeometry width="50" height="50" relative="1" as="geometry">
            <mxPoint x="809.33" y="400" as="sourcePoint" />
            <mxPoint x="809.33" y="340" as="targetPoint" />
          </mxGeometry>
        </mxCell>
        <mxCell id="XVVBf4NelrPcFKvBvD-p-16" value="S1" style="text;html=1;strokeColor=none;fillColor=none;align=center;verticalAlign=middle;whiteSpace=wrap;rounded=0;fontSize=11;fontFamily=Helvetica;fontColor=default;" vertex="1" parent="1">
          <mxGeometry x="800" y="295" width="60" height="30" as="geometry" />
        </mxCell>
      </root>
    </mxGraphModel>
  </diagram>
</mxfile>
